<svg width="75" height="76" viewBox="0 0 75 76" fill="none" xmlns="http://www.w3.org/2000/svg">
<path d="M8.33333 0.5H66.6667C68.8768 0.5 70.9964 1.37797 72.5592 2.94078C74.122 4.50358 75 6.6232 75 8.83333V67.1667C75 69.3768 74.122 71.4964 72.5592 73.0592C70.9964 74.622 68.8768 75.5 66.6667 75.5H8.33333C6.1232 75.5 4.00358 74.622 2.44078 73.0592C0.877973 71.4964 0 69.3768 0 67.1667V8.83333C0 6.6232 0.877973 4.50358 2.44078 2.94078C4.00358 1.37797 6.1232 0.5 8.33333 0.5ZM37.5 29.6667C35.2899 29.6667 33.1702 30.5446 31.6074 32.1074C30.0446 33.6702 29.1667 35.7899 29.1667 38C29.1667 40.2101 30.0446 42.3298 31.6074 43.8926C33.1702 45.4554 35.2899 46.3333 37.5 46.3333C39.7101 46.3333 41.8298 45.4554 43.3926 43.8926C44.9554 42.3298 45.8333 40.2101 45.8333 38C45.8333 35.7899 44.9554 33.6702 43.3926 32.1074C41.8298 30.5446 39.7101 29.6667 37.5 29.6667Z" fill="#85F0C3"/>
</svg>
