<svg width="75" height="76" viewBox="0 0 75 76" fill="none" xmlns="http://www.w3.org/2000/svg">
<path d="M8.33333 0.5H66.6667C68.8768 0.5 70.9964 1.37797 72.5592 2.94078C74.122 4.50358 75 6.6232 75 8.83333V67.1667C75 69.3768 74.122 71.4964 72.5592 73.0592C70.9964 74.622 68.8768 75.5 66.6667 75.5H8.33333C6.1232 75.5 4.00358 74.622 2.44078 73.0592C0.877973 71.4964 0 69.3768 0 67.1667V8.83333C0 6.6232 0.877973 4.50358 2.44078 2.94078C4.00358 1.37797 6.1232 0.5 8.33333 0.5ZM16.6667 8.83333C14.4565 8.83333 12.3369 9.71131 10.7741 11.2741C9.21131 12.8369 8.33333 14.9565 8.33333 17.1667C8.33333 19.3768 9.21131 21.4964 10.7741 23.0592C12.3369 24.622 14.4565 25.5 16.6667 25.5C18.8768 25.5 20.9964 24.622 22.5592 23.0592C24.122 21.4964 25 19.3768 25 17.1667C25 14.9565 24.122 12.8369 22.5592 11.2741C20.9964 9.71131 18.8768 8.83333 16.6667 8.83333ZM58.3333 50.5C56.1232 50.5 54.0036 51.378 52.4408 52.9408C50.878 54.5036 50 56.6232 50 58.8333C50 61.0435 50.878 63.1631 52.4408 64.7259C54.0036 66.2887 56.1232 67.1667 58.3333 67.1667C60.5435 67.1667 62.6631 66.2887 64.2259 64.7259C65.7887 63.1631 66.6667 61.0435 66.6667 58.8333C66.6667 56.6232 65.7887 54.5036 64.2259 52.9408C62.6631 51.378 60.5435 50.5 58.3333 50.5ZM58.3333 8.83333C56.1232 8.83333 54.0036 9.71131 52.4408 11.2741C50.878 12.8369 50 14.9565 50 17.1667C50 19.3768 50.878 21.4964 52.4408 23.0592C54.0036 24.622 56.1232 25.5 58.3333 25.5C60.5435 25.5 62.6631 24.622 64.2259 23.0592C65.7887 21.4964 66.6667 19.3768 66.6667 17.1667C66.6667 14.9565 65.7887 12.8369 64.2259 11.2741C62.6631 9.71131 60.5435 8.83333 58.3333 8.83333ZM16.6667 50.5C14.4565 50.5 12.3369 51.378 10.7741 52.9408C9.21131 54.5036 8.33333 56.6232 8.33333 58.8333C8.33333 61.0435 9.21131 63.1631 10.7741 64.7259C12.3369 66.2887 14.4565 67.1667 16.6667 67.1667C18.8768 67.1667 20.9964 66.2887 22.5592 64.7259C24.122 63.1631 25 61.0435 25 58.8333C25 56.6232 24.122 54.5036 22.5592 52.9408C20.9964 51.378 18.8768 50.5 16.6667 50.5Z" fill="white"/>
</svg>
