<svg width="32" height="32" viewBox="0 0 32 32" fill="none" xmlns="http://www.w3.org/2000/svg">
<path d="M29.615 0.25H14.635C13.4625 0.25 12.5 1.2125 12.5 2.385V9H23V19.5H29.615C30.7875 19.5 31.75 18.5375 31.75 17.365V2.385C31.75 1.2125 30.7875 0.25 29.615 0.25ZM16.77 6.6725C16.1991 6.6725 15.6516 6.44572 15.248 6.04205C14.8443 5.63838 14.6175 5.09088 14.6175 4.52C14.6175 3.94912 14.8443 3.40162 15.248 2.99795C15.6516 2.59428 16.1991 2.3675 16.77 2.3675C17.3409 2.3675 17.8884 2.59428 18.292 2.99795C18.6957 3.40162 18.9225 3.94912 18.9225 4.52C18.9225 5.71 17.96 6.6725 16.77 6.6725ZM27.48 17.365C27.1973 17.3673 26.917 17.3139 26.6549 17.2078C26.3929 17.1018 26.1543 16.9452 25.9528 16.7469C25.7513 16.5487 25.5908 16.3127 25.4805 16.0524C25.3703 15.7921 25.3123 15.5127 25.31 15.23C25.3077 14.9473 25.3611 14.667 25.4672 14.4049C25.5732 14.1429 25.7298 13.9043 25.9281 13.7028C26.1263 13.5013 26.3623 13.3408 26.6226 13.2305C26.8829 13.1202 27.1623 13.0623 27.445 13.06C28.635 13.0425 29.5975 14.005 29.615 15.23C29.5975 16.4025 28.6525 17.3475 27.48 17.365ZM27.48 6.6725C26.9091 6.67714 26.3598 6.45481 25.9528 6.05442C25.5459 5.65403 25.3146 5.10838 25.31 4.5375C25.3054 3.96662 25.5277 3.41728 25.9281 3.01033C26.3285 2.60337 26.8741 2.37214 27.445 2.3675C28.0013 2.38495 28.5293 2.61706 28.9183 3.0152C29.3073 3.41333 29.5271 3.94658 29.5316 4.50318C29.5362 5.05978 29.3251 5.59653 28.9426 6.00093C28.5601 6.40534 28.036 6.64601 27.48 6.6725ZM2.385 12.5H17.365C17.9312 12.5 18.4743 12.7249 18.8747 13.1253C19.2751 13.5257 19.5 14.0688 19.5 14.635V29.615C19.5 30.7875 18.5375 31.75 17.365 31.75H2.385C1.2125 31.75 0.25 30.7875 0.25 29.615V14.635C0.25 13.4625 1.2125 12.5 2.385 12.5ZM9.875 19.99C8.7025 19.99 7.74 20.9525 7.74 22.125C7.74 23.2975 8.7025 24.26 9.875 24.26C11.0475 24.26 12.01 23.2975 12.01 22.125C12.01 21.5588 11.7851 21.0157 11.3847 20.6153C10.9843 20.2149 10.4412 19.99 9.875 19.99ZM4.52 14.635C3.3475 14.635 2.385 15.5975 2.385 16.77C2.385 17.3362 2.60994 17.8793 3.01033 18.2797C3.41072 18.6801 3.95376 18.905 4.52 18.905C5.6925 18.905 6.655 17.9425 6.655 16.77C6.655 15.5975 5.6925 14.635 4.52 14.635ZM15.2125 25.3275C14.04 25.3275 13.0775 26.29 13.0775 27.4625C13.0775 28.635 14.04 29.5975 15.2125 29.5975C15.7787 29.5975 16.3218 29.3726 16.7222 28.9722C17.1226 28.5718 17.3475 28.0287 17.3475 27.4625C17.3475 26.29 16.4025 25.345 15.23 25.3275H15.2125Z" fill="black"/>
</svg>
