<svg width="192" height="102" viewBox="0 0 192 102" fill="none" xmlns="http://www.w3.org/2000/svg">
<path d="M6.23642 63.2783C5.51221 69.3825 4.04801 78.8204 5.20785 78.958C7.66824 79.2499 18.7083 81.3913 24.7936 82.1133C30.8789 82.8353 36.3726 82.6554 36.3726 82.6554C36.3726 82.6554 38.5618 71.2137 39.2847 65.12C40.0077 59.0262 41.114 53.2066 40.07 51.4906C38.7994 49.4017 30.8553 49.4054 24.5849 48.8218C18.4833 48.2538 8.90524 47.7932 8.90524 47.7932C8.12124 43.8865 6.96062 57.174 6.23642 63.2783Z" stroke="black" stroke-width="3" stroke-linejoin="round"/>
<path d="M26.1029 64.0671C25.888 65.8789 24.1671 67.8294 22.3554 67.6145C20.5436 67.3995 19.2491 65.7566 19.4641 63.9448C19.679 62.133 21.322 60.8385 23.1338 61.0535C24.9455 61.2684 26.3179 62.2553 26.1029 64.0671Z" fill="black"/>
<path d="M32.6931 73.459C32.9831 75.2816 31.8654 77.651 30.067 77.9372C28.2686 78.2234 26.5756 76.9779 26.2856 75.1553C25.9956 73.3328 26.1596 71.3667 27.958 71.0806C29.7563 70.7944 32.4031 71.6364 32.6931 73.459Z" fill="black"/>
<path d="M36.1152 56.3584C36.3971 58.1301 35.2197 60.4478 33.3593 60.7439C31.499 61.0399 29.7624 59.8436 29.4805 58.072C29.1985 56.3003 29.387 54.3846 31.2473 54.0886C33.1076 53.7926 35.8333 54.5868 36.1152 56.3584Z" fill="black"/>
<path d="M11.9706 57.0743C11.0518 55.7849 11.1719 53.4194 12.6492 52.3668C14.1264 51.3142 16.0688 51.5061 16.9875 52.7956C17.9063 54.085 18.478 55.6958 17.0007 56.7484C15.5235 57.801 12.8893 58.3637 11.9706 57.0743Z" fill="black"/>
<path d="M15.9858 70.9026C16.262 72.6384 15.4716 74.8806 13.687 75.1646C11.9024 75.4485 9.8995 74.2953 9.62329 72.5595C9.34709 70.8238 10.1652 69.3314 11.9498 69.0474C13.7344 68.7634 15.7096 69.1669 15.9858 70.9026Z" fill="black"/>
<path d="M145.48 76.2986C145.48 76.2986 150.417 80.3559 152.401 81.6997C154.385 83.0435 160.961 84.6844 160.961 84.6844C160.961 84.6844 157.768 78.9895 153.746 75.5556C149.725 72.1216 143.459 65.754 143.459 65.754C143.459 65.754 154.358 69.9724 158.863 73.7342C163.368 77.496 175.562 81.8869 175.562 81.8869C175.562 81.8869 147.083 58.3325 145.978 54.7602C144.259 49.2033 177.407 73.9651 177.407 73.9651L156.056 50.3064L182.247 66.3105L169.845 47.6643" stroke="#74CCA7" stroke-width="6" stroke-linecap="round" stroke-linejoin="round"/>
<path d="M147.365 70.4268C148.522 76.464 149.982 85.9025 151.129 85.6827C153.563 85.2164 164.733 83.917 170.752 82.7638C176.77 81.6106 181.952 79.7768 181.952 79.7768C181.952 79.7768 180.576 68.2091 179.421 62.1823C178.267 56.1555 177.56 50.2739 176.046 48.9542C174.203 47.3477 166.632 49.755 160.479 51.096C154.492 52.4009 145.223 54.86 145.223 54.86C143.294 51.3737 146.208 64.3896 147.365 70.4268Z" stroke="black" stroke-width="3" stroke-linejoin="round"/>
<path d="M166.539 65.1674C166.882 66.9592 165.832 69.3391 164.041 69.6824C162.249 70.0258 160.518 68.8515 160.174 67.0596C159.831 65.2677 161.005 63.5368 162.797 63.1934C164.589 62.8501 166.196 63.3755 166.539 65.1674Z" fill="black"/>
<path d="M175.662 72.1249C176.49 73.7743 176.142 76.3709 174.514 77.1878C172.887 78.0047 170.896 77.3299 170.068 75.6805C169.24 74.0311 168.802 72.1077 170.429 71.2907C172.057 70.4738 174.834 70.4755 175.662 72.1249Z" fill="black"/>
<path d="M173.749 54.7905C174.554 56.3938 174.133 58.9592 172.45 59.8042C170.766 60.6493 168.749 60.0346 167.944 58.4313C167.139 56.828 166.739 54.9451 168.423 54.1C170.107 53.255 172.945 53.1872 173.749 54.7905Z" fill="black"/>
<path d="M150.953 62.7786C149.687 61.8276 149.086 59.5366 150.176 58.0864C151.265 56.6361 153.175 56.2314 154.44 57.1824C155.706 58.1333 156.739 59.4956 155.649 60.9459C154.559 62.3961 152.219 63.7296 150.953 62.7786Z" fill="black"/>
<path d="M158.964 74.7437C159.753 76.3145 159.678 78.6908 158.063 79.5015C156.448 80.3121 154.19 79.819 153.402 78.2482C152.613 76.6774 152.941 75.0074 154.556 74.1967C156.171 73.3861 158.176 73.1729 158.964 74.7437Z" fill="black"/>
<path d="M68.5255 66.7158C72.3098 69.1678 76.0941 71.6198 79.8783 74.0718C79.9479 73.528 79.9913 72.9586 80.0863 72.3885C76.4 73.0888 72.6619 73.7899 68.9756 74.4902C68.4857 74.5749 68.2101 75.1735 68.3458 75.611C68.4822 76.1002 68.9766 76.3256 69.4666 76.2408C73.1529 75.5405 76.891 74.8394 80.5773 74.1391C81.4283 73.9974 81.3854 72.8348 80.7853 72.4558C77.001 70.0038 73.2167 67.5518 69.4325 65.0998C69.0152 64.8474 68.4234 65.037 68.1972 65.4798C67.9194 65.9233 68.1337 66.4372 68.5255 66.7158Z" fill="black"/>
<path d="M77.2813 66.1997C79.8204 68.3597 82.6142 70.2575 85.5841 71.8167C87.069 72.5963 88.6303 73.2972 90.1908 73.9465C90.2949 73.9966 90.504 74.1487 90.6074 74.1471C90.7624 74.1449 90.6343 74.2243 90.6838 74.0685C90.8088 73.7823 90.4515 74.0977 90.3234 74.1772C89.5526 74.4987 88.7556 74.7947 87.9324 75.0653C86.1316 75.6604 84.3038 76.1784 82.4745 76.593C81.3149 76.8426 81.8058 78.5932 82.9654 78.3436C84.7693 77.9552 86.5716 77.4635 88.3462 76.8429C89.1949 76.5461 90.0436 76.2493 90.8916 75.9008C91.6624 75.5793 92.5335 75.0495 92.5199 74.1191C92.5055 73.137 91.7226 72.6315 90.9164 72.3072C90.0841 71.9575 89.2517 71.6078 88.4449 71.2319C86.7532 70.4554 85.1372 69.5484 83.5459 68.5636C81.798 67.4776 80.1512 66.2351 78.5808 64.9139C78.2144 64.6091 77.6451 64.5657 77.2885 64.9329C76.9567 65.2221 76.9403 65.8686 77.2813 66.1997Z" fill="black"/>
<path d="M90.3861 67.8687C92.0185 68.1291 93.4794 69.0383 94.9119 69.767C96.5526 70.596 98.2188 71.3988 99.8595 72.2278C100.693 72.6292 101.474 73.0313 102.307 73.4327C102.438 73.5084 102.568 73.584 102.724 73.6334C102.958 73.7592 102.777 73.736 102.802 73.6581C102.776 73.6843 102.797 73.348 102.797 73.348C102.797 73.348 102.13 73.668 102.027 73.7212C100.332 74.4699 98.6367 75.2185 96.9416 75.9672C95.015 76.7968 93.1145 77.6519 91.1879 78.4815C90.7258 78.6951 90.6577 79.3423 90.8443 79.7273C91.1096 80.1888 91.6534 80.2583 92.0902 80.071C93.9651 79.2421 95.8655 78.387 97.7666 77.5837C99.6416 76.7548 101.543 76.0031 103.391 75.0971C104.187 74.6977 104.796 73.9132 104.472 72.9874C104.148 72.0615 103.006 71.7163 102.224 71.3142C100.402 70.4103 98.605 69.5319 96.7822 68.628C95.7926 68.1255 94.7512 67.6238 93.7615 67.1213C92.8243 66.6697 91.8616 66.2444 90.8247 66.0528C90.3325 65.9824 89.8449 66.2222 89.7229 66.7152C89.6009 67.2081 89.9193 67.7721 90.3861 67.8687Z" fill="black"/>
<path d="M101.997 66.406C102.202 66.2479 102.358 66.2973 102.617 66.3452C103.058 66.468 103.526 66.6679 103.968 66.8424C104.878 67.1651 105.788 67.5395 106.698 67.8622C108.569 68.5586 110.441 69.255 112.338 69.9768C113.3 70.3505 114.288 70.6979 115.249 71.0716C115.587 71.1959 115.899 71.2947 116.186 71.4714C116.29 71.5216 116.343 71.5725 116.447 71.6744C116.447 71.6744 116.579 71.8017 116.5 71.7253C116.5 71.7253 116.474 71.6999 116.499 71.6736C116.527 71.8025 116.527 71.8025 116.525 71.6991C116.782 71.5919 116.447 71.6744 116.525 71.6474C116.473 71.6482 116.423 71.7523 116.397 71.7785C116.244 71.8842 116.116 71.9636 115.962 72.0693C115.527 72.36 115.092 72.6507 114.63 72.916C113.836 73.4188 112.991 73.9224 112.17 74.3997C110.299 75.487 108.376 76.5234 106.399 77.4571C105.937 77.6707 105.842 78.2925 106.055 78.703C106.32 79.1644 106.864 79.234 107.301 79.0466C109.303 78.0867 111.227 77.0503 113.124 75.9368C114.072 75.38 115.02 74.8232 115.941 74.1893C116.786 73.6341 118.019 73.099 118.262 72.0097C118.748 69.8828 115.61 69.1792 114.206 68.6828C112.075 67.8868 109.943 67.0908 107.812 66.2949C106.616 65.8471 105.421 65.3993 104.225 64.9515C103.238 64.6041 102.04 64.053 101.069 64.791C100.685 65.081 100.46 65.5755 100.725 66.0369C100.991 66.4983 101.588 66.7222 101.997 66.406Z" fill="black"/>
<path d="M141.694 5.21484C141.712 5.05078 141.732 4.91602 141.756 4.81055C141.785 4.69922 141.826 4.61133 141.879 4.54688C141.938 4.47656 142.011 4.42676 142.099 4.39746C142.187 4.36816 142.298 4.35352 142.433 4.35352C142.86 4.35352 143.174 4.41797 143.373 4.54688C143.578 4.66992 143.681 4.86914 143.681 5.14453C143.681 5.19727 143.669 5.31445 143.646 5.49609C143.628 5.67188 143.602 5.8916 143.566 6.15527C143.531 6.41309 143.49 6.7002 143.443 7.0166C143.402 7.32715 143.361 7.64355 143.32 7.96582C143.215 8.71582 143.095 9.55664 142.96 10.4883C142.878 11.0391 142.714 11.4346 142.468 11.6748C142.228 11.915 141.87 12.0352 141.396 12.0352C141.038 12.0352 140.669 11.9443 140.288 11.7627C139.907 11.5811 139.538 11.335 139.181 11.0244C138.823 10.7139 138.483 10.3535 138.161 9.94336C137.845 9.52734 137.566 9.08789 137.326 8.625C137.086 8.15625 136.896 7.67871 136.755 7.19238C136.62 6.70605 136.553 6.23145 136.553 5.76855C136.553 5.24707 136.626 4.85742 136.772 4.59961C136.925 4.33594 137.186 4.2041 137.555 4.2041C137.812 4.2041 138.026 4.22168 138.196 4.25684C138.366 4.28613 138.501 4.3418 138.601 4.42383C138.706 4.5 138.779 4.60254 138.82 4.73145C138.867 4.86035 138.891 5.02148 138.891 5.21484C138.891 5.34375 138.885 5.47266 138.873 5.60156C138.861 5.73047 138.855 5.85938 138.855 5.98828C138.855 6.28711 138.885 6.60059 138.943 6.92871C139.008 7.25098 139.093 7.56738 139.198 7.87793C139.304 8.18848 139.427 8.48438 139.567 8.76562C139.708 9.04102 139.857 9.28418 140.016 9.49512C140.174 9.70605 140.332 9.87305 140.49 9.99609C140.654 10.1191 140.812 10.1807 140.965 10.1807C141.07 10.1807 141.149 10.1455 141.202 10.0752C141.261 10.0049 141.299 9.88477 141.316 9.71484L141.694 5.21484ZM150.457 4.31836C150.779 4.31836 151.09 4.36816 151.389 4.46777C151.688 4.56738 151.951 4.70508 152.18 4.88086C152.408 5.05664 152.59 5.26758 152.725 5.51367C152.865 5.75977 152.936 6.03223 152.936 6.33105C152.936 6.4541 152.906 6.57422 152.848 6.69141C152.795 6.80273 152.722 6.90234 152.628 6.99023C152.534 7.07227 152.426 7.13965 152.303 7.19238C152.186 7.23926 152.062 7.2627 151.934 7.2627C151.922 7.2627 151.91 7.26562 151.898 7.27148C151.893 7.27148 151.884 7.27148 151.872 7.27148C151.86 7.27734 151.849 7.28027 151.837 7.28027L151.872 7.9834C151.896 8.82129 152.013 9.43359 152.224 9.82031C152.44 10.207 152.722 10.4004 153.067 10.4004C153.19 10.4004 153.299 10.3887 153.393 10.3652C153.492 10.3418 153.583 10.3154 153.665 10.2861C153.753 10.251 153.835 10.2217 153.911 10.1982C153.987 10.1748 154.063 10.1631 154.14 10.1631C154.274 10.1631 154.392 10.2217 154.491 10.3389C154.597 10.4561 154.649 10.5967 154.649 10.7607C154.649 10.9248 154.585 11.0889 154.456 11.2529C154.333 11.417 154.169 11.5664 153.964 11.7012C153.759 11.8301 153.527 11.9355 153.27 12.0176C153.012 12.0996 152.751 12.1406 152.487 12.1406C152.03 12.1406 151.629 11.9531 151.283 11.5781C150.938 11.1973 150.691 10.6406 150.545 9.9082C150.51 9.79102 150.463 9.73242 150.404 9.73242C150.334 9.73242 150.272 9.76758 150.22 9.83789C149.64 10.5703 149.021 11.1211 148.365 11.4902C147.709 11.8535 147.062 12.0352 146.423 12.0352C146.124 12.0352 145.854 11.9912 145.614 11.9033C145.374 11.8154 145.169 11.6924 144.999 11.5342C144.835 11.3701 144.706 11.1738 144.612 10.9453C144.524 10.7109 144.48 10.4502 144.48 10.1631C144.48 9.75879 144.568 9.33398 144.744 8.88867C144.926 8.44336 145.169 8.00391 145.474 7.57031C145.778 7.13672 146.13 6.72363 146.528 6.33105C146.933 5.93848 147.354 5.59277 147.794 5.29395C148.239 4.99512 148.69 4.75781 149.147 4.58203C149.604 4.40625 150.041 4.31836 150.457 4.31836ZM150.167 7.35938C150.272 7.16016 150.369 7.0166 150.457 6.92871C150.545 6.83496 150.671 6.77344 150.835 6.74414C150.964 6.72656 151.028 6.68555 151.028 6.62109C151.028 6.57422 151.011 6.52441 150.976 6.47168C150.864 6.31934 150.747 6.1875 150.624 6.07617C150.501 5.95898 150.337 5.90039 150.132 5.90039C149.909 5.90039 149.66 5.96484 149.385 6.09375C149.109 6.22266 148.828 6.39551 148.541 6.6123C148.26 6.82324 147.981 7.06641 147.706 7.3418C147.437 7.61133 147.196 7.88965 146.985 8.17676C146.774 8.46387 146.604 8.74805 146.476 9.0293C146.347 9.31055 146.282 9.5625 146.282 9.78516C146.282 9.98438 146.335 10.1396 146.44 10.251C146.552 10.3623 146.701 10.418 146.889 10.418C147.369 10.418 147.894 10.1631 148.462 9.65332C149.03 9.14355 149.599 8.37891 150.167 7.35938ZM154.465 1.98926C154.465 1.68457 154.553 1.46777 154.729 1.33887C154.904 1.20996 155.194 1.14551 155.599 1.14551C155.739 1.14551 155.862 1.16016 155.968 1.18945C156.073 1.21875 156.161 1.26855 156.231 1.33887C156.302 1.40332 156.357 1.49414 156.398 1.61133C156.445 1.72266 156.483 1.86621 156.513 2.04199C156.589 2.56348 156.665 3.11133 156.741 3.68555C156.823 4.25391 156.899 4.82227 156.97 5.39062C157.046 5.95312 157.116 6.50391 157.181 7.04297C157.245 7.57617 157.301 8.07422 157.348 8.53711C157.4 8.99414 157.438 9.40137 157.462 9.75879C157.491 10.1104 157.506 10.3887 157.506 10.5938C157.506 10.8047 157.485 10.9834 157.444 11.1299C157.409 11.2764 157.345 11.3936 157.251 11.4814C157.163 11.5693 157.046 11.6338 156.899 11.6748C156.759 11.71 156.583 11.7275 156.372 11.7275C156.167 11.7275 156.003 11.6748 155.88 11.5693C155.763 11.4639 155.704 11.3027 155.704 11.0859C155.704 10.8633 155.687 10.5674 155.651 10.1982C155.616 9.82324 155.569 9.40723 155.511 8.9502C155.452 8.49316 155.385 8.00684 155.309 7.49121C155.238 6.97559 155.162 6.46582 155.08 5.96191C155.004 5.45801 154.928 4.97461 154.852 4.51172C154.781 4.04297 154.717 3.62988 154.658 3.27246C154.6 2.90918 154.553 2.61328 154.518 2.38477C154.482 2.15039 154.465 2.01855 154.465 1.98926ZM160.758 8.88867C160.758 9.67383 160.878 10.2803 161.118 10.708C161.358 11.1357 161.707 11.3496 162.164 11.3496C162.451 11.3496 162.715 11.2646 162.955 11.0947C163.201 10.9248 163.412 10.6875 163.588 10.3828C163.764 10.0781 163.898 9.71777 163.992 9.30176C164.092 8.87988 164.142 8.42285 164.142 7.93066C164.142 7.63184 164.13 7.37402 164.106 7.15723C164.083 6.93457 164.057 6.73828 164.027 6.56836C164.004 6.39258 163.98 6.2373 163.957 6.10254C163.934 5.96777 163.922 5.83887 163.922 5.71582C163.922 5.52832 164.001 5.39355 164.159 5.31152C164.317 5.22363 164.569 5.17969 164.915 5.17969C165.354 5.17969 165.694 5.2793 165.935 5.47852C166.181 5.67773 166.304 5.96777 166.304 6.34863C166.304 7.38574 166.201 8.31738 165.996 9.14355C165.797 9.96973 165.507 10.6729 165.126 11.2529C164.751 11.8271 164.294 12.2695 163.755 12.5801C163.216 12.8906 162.612 13.0459 161.944 13.0459C161.47 13.0459 161.03 12.9463 160.626 12.7471C160.228 12.5537 159.882 12.2812 159.589 11.9297C159.302 11.5723 159.076 11.1504 158.912 10.6641C158.748 10.1719 158.666 9.63281 158.666 9.04688C158.666 8.82422 158.672 8.58691 158.684 8.33496C158.695 8.08301 158.713 7.81348 158.736 7.52637C158.76 7.2334 158.789 6.91699 158.824 6.57715C158.865 6.2373 158.909 5.86816 158.956 5.46973C158.974 5.2998 159.053 5.16504 159.193 5.06543C159.34 4.95996 159.524 4.90723 159.747 4.90723C159.946 4.90723 160.134 4.92773 160.31 4.96875C160.485 5.00977 160.635 5.06543 160.758 5.13574C160.887 5.20605 160.986 5.28809 161.057 5.38184C161.133 5.47559 161.171 5.5752 161.171 5.68066C161.171 5.78613 161.147 5.95312 161.101 6.18164C161.06 6.4043 161.013 6.66211 160.96 6.95508C160.913 7.24219 160.866 7.55566 160.819 7.89551C160.778 8.22949 160.758 8.56055 160.758 8.88867ZM174.847 10.0752C175.017 9.92871 175.184 9.85547 175.348 9.85547C175.441 9.85547 175.526 9.87891 175.603 9.92578C175.679 9.97266 175.764 10.0459 175.857 10.1455C175.945 10.2803 176.007 10.3916 176.042 10.4795C176.083 10.5615 176.104 10.6436 176.104 10.7256C176.104 10.9014 176.016 11.0684 175.84 11.2266C175.559 11.4609 175.254 11.6719 174.926 11.8594C174.598 12.041 174.255 12.1963 173.897 12.3252C173.54 12.4541 173.171 12.5508 172.79 12.6152C172.409 12.6855 172.031 12.7207 171.656 12.7207C171.182 12.7207 170.736 12.6592 170.32 12.5361C169.904 12.4189 169.532 12.249 169.204 12.0264C168.882 11.8037 168.609 11.5371 168.387 11.2266C168.164 10.9102 168.006 10.5557 167.912 10.1631C167.859 9.99902 167.81 9.89355 167.763 9.84668C167.722 9.79395 167.651 9.76758 167.552 9.76758C167.335 9.76758 167.168 9.71484 167.051 9.60938C166.934 9.50391 166.875 9.35156 166.875 9.15234C166.875 9.07031 166.881 9.01758 166.893 8.99414L166.91 8.81836C166.939 8.60742 166.995 8.45508 167.077 8.36133C167.165 8.26758 167.3 8.2207 167.481 8.2207H167.613C167.859 8.2207 168.032 8.10645 168.132 7.87793C168.313 7.47363 168.545 7.10449 168.826 6.77051C169.107 6.43652 169.424 6.15234 169.775 5.91797C170.127 5.67773 170.502 5.49316 170.9 5.36426C171.305 5.22949 171.715 5.16211 172.131 5.16211C172.564 5.16211 172.969 5.22656 173.344 5.35547C173.725 5.47852 174.056 5.65137 174.337 5.87402C174.618 6.09668 174.838 6.35742 174.996 6.65625C175.16 6.95508 175.242 7.27734 175.242 7.62305C175.242 7.86328 175.195 8.08301 175.102 8.28223C175.008 8.48145 174.873 8.65723 174.697 8.80957C174.521 8.95605 174.308 9.07617 174.056 9.16992C173.81 9.26367 173.528 9.3252 173.212 9.35449L170.162 9.66211C170.045 9.66211 169.948 9.69141 169.872 9.75C169.802 9.80859 169.767 9.8877 169.767 9.9873C169.767 10.1396 169.822 10.2861 169.934 10.4268C170.051 10.5674 170.203 10.6934 170.391 10.8047C170.584 10.9102 170.804 10.9951 171.05 11.0596C171.302 11.124 171.56 11.1562 171.823 11.1562C172.075 11.1562 172.333 11.1328 172.597 11.0859C172.866 11.0332 173.13 10.96 173.388 10.8662C173.651 10.7725 173.906 10.6611 174.152 10.5322C174.398 10.3975 174.63 10.2451 174.847 10.0752ZM172.887 7.80762C172.975 7.79004 173.051 7.74902 173.115 7.68457C173.18 7.61426 173.212 7.5293 173.212 7.42969C173.212 7.3418 173.18 7.25977 173.115 7.18359C173.051 7.10742 172.963 7.04004 172.852 6.98145C172.74 6.91699 172.611 6.86719 172.465 6.83203C172.318 6.79688 172.163 6.7793 171.999 6.7793C171.759 6.7793 171.513 6.81445 171.261 6.88477C171.009 6.95508 170.78 7.04883 170.575 7.16602C170.37 7.27734 170.203 7.40332 170.074 7.54395C169.945 7.67871 169.881 7.81348 169.881 7.94824C169.881 8.08301 169.963 8.15039 170.127 8.15039C170.227 8.15039 170.388 8.13867 170.61 8.11523C170.833 8.0918 171.079 8.06543 171.349 8.03613C171.618 8.00098 171.891 7.96289 172.166 7.92188C172.441 7.88086 172.682 7.84277 172.887 7.80762ZM182.256 3.03516C182.086 3.03516 181.925 3.01172 181.772 2.96484C181.626 2.91211 181.497 2.8418 181.386 2.75391C181.28 2.66016 181.195 2.55176 181.131 2.42871C181.066 2.30566 181.034 2.1709 181.034 2.02441C181.034 1.77832 181.131 1.5791 181.324 1.42676C181.523 1.27441 181.787 1.19824 182.115 1.19824C182.268 1.19824 182.414 1.22754 182.555 1.28613C182.695 1.33887 182.818 1.41211 182.924 1.50586C183.035 1.59961 183.123 1.71094 183.188 1.83984C183.252 1.96289 183.284 2.0918 183.284 2.22656C183.284 2.47852 183.19 2.67773 183.003 2.82422C182.821 2.96484 182.572 3.03516 182.256 3.03516ZM181.052 5.71582C181.052 5.51074 181.14 5.34375 181.315 5.21484C181.497 5.08008 181.734 5.0127 182.027 5.0127C182.555 5.0127 182.836 5.19434 182.871 5.55762C182.895 5.80957 182.918 6.09375 182.941 6.41016C182.971 6.72656 182.997 7.06348 183.021 7.4209C183.05 7.77246 183.073 8.13867 183.091 8.51953C183.114 8.89453 183.135 9.2666 183.152 9.63574C183.17 9.99902 183.185 10.3506 183.196 10.6904C183.208 11.0303 183.214 11.3408 183.214 11.6221C183.214 11.915 183.108 12.1348 182.897 12.2812C182.692 12.4277 182.391 12.501 181.992 12.501C181.811 12.501 181.667 12.457 181.562 12.3691C181.462 12.2871 181.412 12.1641 181.412 12C181.412 11.1914 181.392 10.4355 181.351 9.73242C181.315 9.02344 181.274 8.39355 181.228 7.84277C181.187 7.29199 181.146 6.83496 181.104 6.47168C181.069 6.10254 181.052 5.85059 181.052 5.71582ZM187.028 4.37109C187.421 4.37109 187.825 4.42383 188.241 4.5293C188.657 4.62891 189.038 4.76074 189.384 4.9248C189.729 5.08301 190.014 5.26172 190.236 5.46094C190.459 5.66016 190.57 5.85352 190.57 6.04102C190.57 6.13477 190.529 6.24023 190.447 6.35742C190.365 6.46875 190.266 6.57715 190.148 6.68262C190.031 6.78223 189.902 6.86719 189.762 6.9375C189.627 7.00195 189.507 7.03418 189.401 7.03418C189.261 7.03418 189.103 6.97559 188.927 6.8584C188.757 6.74121 188.566 6.6123 188.355 6.47168C188.15 6.3252 187.925 6.19336 187.679 6.07617C187.433 5.95898 187.166 5.90039 186.879 5.90039C186.691 5.90039 186.536 5.94727 186.413 6.04102C186.296 6.12891 186.237 6.25488 186.237 6.41895C186.237 6.56543 186.308 6.71484 186.448 6.86719C186.589 7.01367 186.773 7.16602 187.002 7.32422C187.236 7.48242 187.5 7.64941 187.793 7.8252C188.086 8.00098 188.385 8.18848 188.689 8.3877C189 8.58691 189.302 8.80371 189.595 9.03809C189.888 9.27246 190.148 9.52734 190.377 9.80273C190.611 10.0781 190.799 10.3799 190.939 10.708C191.08 11.0303 191.15 11.3818 191.15 11.7627C191.15 12.0908 191.092 12.3896 190.975 12.6592C190.857 12.9287 190.69 13.1602 190.474 13.3535C190.257 13.5469 189.999 13.6963 189.7 13.8018C189.401 13.9072 189.073 13.96 188.716 13.96C188.265 13.96 187.849 13.8896 187.468 13.749C187.087 13.6143 186.759 13.4268 186.483 13.1865C186.208 12.9463 185.991 12.6592 185.833 12.3252C185.681 11.9912 185.604 11.625 185.604 11.2266C185.604 10.7109 185.695 10.3359 185.877 10.1016C186.064 9.86719 186.357 9.75 186.756 9.75C187.002 9.75 187.198 9.79688 187.345 9.89062C187.491 9.98438 187.564 10.0986 187.564 10.2334C187.564 10.3037 187.553 10.377 187.529 10.4531C187.506 10.5234 187.479 10.5996 187.45 10.6816C187.427 10.7578 187.403 10.8398 187.38 10.9277C187.362 11.0156 187.354 11.1035 187.354 11.1914C187.354 11.3438 187.389 11.4902 187.459 11.6309C187.529 11.7715 187.623 11.8945 187.74 12C187.863 12.1113 188.004 12.1992 188.162 12.2637C188.32 12.3281 188.487 12.3604 188.663 12.3604C189.132 12.3604 189.366 12.167 189.366 11.7803C189.366 11.4756 189.246 11.1885 189.006 10.9189C188.766 10.6436 188.464 10.377 188.101 10.1191C187.737 9.85547 187.345 9.5918 186.923 9.32812C186.507 9.06445 186.117 8.78906 185.754 8.50195C185.391 8.21484 185.089 7.91016 184.849 7.58789C184.608 7.25977 184.488 6.90527 184.488 6.52441C184.488 6.20801 184.553 5.91797 184.682 5.6543C184.816 5.39062 184.998 5.16504 185.227 4.97754C185.455 4.78418 185.722 4.63477 186.026 4.5293C186.337 4.42383 186.671 4.37109 187.028 4.37109ZM137.669 24.1572C137.534 24.1455 137.426 24.0576 137.344 23.8936C137.262 23.7295 137.221 23.5479 137.221 23.3486C137.221 23.2549 137.229 23.1641 137.247 23.0762C137.259 22.9824 137.282 22.9004 137.317 22.8301C137.353 22.7598 137.396 22.7041 137.449 22.6631C137.502 22.6162 137.563 22.5928 137.634 22.5928C137.851 22.5928 138.1 22.5869 138.381 22.5752C138.662 22.5576 138.964 22.54 139.286 22.5225C139.45 22.5049 139.541 22.4082 139.559 22.2324C139.611 21.3828 139.685 20.6504 139.778 20.0352C139.872 19.4199 139.986 18.9014 140.121 18.4795C140.256 18.0518 140.408 17.7061 140.578 17.4424C140.754 17.1787 140.947 16.9766 141.158 16.8359C141.223 16.7891 141.299 16.7422 141.387 16.6953C141.475 16.6426 141.557 16.6162 141.633 16.6162C141.779 16.6162 141.932 16.6543 142.09 16.7305C142.254 16.8008 142.403 16.8945 142.538 17.0117C142.679 17.123 142.793 17.252 142.881 17.3984C142.969 17.5391 143.013 17.6797 143.013 17.8203C143.013 17.873 143.001 17.917 142.978 17.9521C142.954 17.9814 142.925 18.0107 142.89 18.04C142.661 18.21 142.459 18.4004 142.283 18.6113C142.107 18.8223 141.958 19.0801 141.835 19.3848C141.712 19.6895 141.609 20.0557 141.527 20.4834C141.445 20.9111 141.384 21.4268 141.343 22.0303C141.343 22.124 141.357 22.1943 141.387 22.2412C141.422 22.2822 141.483 22.3027 141.571 22.3027C141.8 22.3027 142.028 22.2852 142.257 22.25C142.491 22.2148 142.714 22.1797 142.925 22.1445C143.136 22.1035 143.335 22.0654 143.522 22.0303C143.71 21.9951 143.877 21.9775 144.023 21.9775C144.129 21.9775 144.205 22.042 144.252 22.1709C144.305 22.2939 144.331 22.4463 144.331 22.6279C144.331 22.7334 144.322 22.8418 144.305 22.9531C144.287 23.0645 144.258 23.1641 144.217 23.252C144.182 23.3398 144.135 23.416 144.076 23.4805C144.018 23.5391 143.944 23.5742 143.856 23.5859L141.519 23.832C141.396 23.8496 141.319 23.8994 141.29 23.9814C141.267 24.0635 141.255 24.1777 141.255 24.3242C141.255 25.6191 141.287 26.7324 141.352 27.6641C141.416 28.5957 141.486 29.3779 141.562 30.0107C141.645 30.6494 141.718 31.1504 141.782 31.5137C141.847 31.8828 141.879 32.1494 141.879 32.3135C141.879 32.4365 141.829 32.5479 141.729 32.6475C141.636 32.7471 141.513 32.832 141.36 32.9023C141.214 32.9727 141.053 33.0254 140.877 33.0605C140.701 33.1016 140.537 33.1221 140.385 33.1221C140.238 33.1221 140.106 33.0957 139.989 33.043C139.878 32.9961 139.813 32.9141 139.796 32.7969C139.737 32.3867 139.688 31.9355 139.646 31.4434C139.605 30.957 139.57 30.415 139.541 29.8174C139.518 29.2256 139.5 28.5781 139.488 27.875C139.477 27.166 139.471 26.3896 139.471 25.5459C139.471 25.3291 139.471 25.1182 139.471 24.9131C139.471 24.708 139.477 24.5029 139.488 24.2979C139.488 24.1221 139.392 24.0342 139.198 24.0342L137.669 24.1572ZM148.699 22.4258C148.482 22.4258 148.292 22.4844 148.128 22.6016C147.964 22.7129 147.823 22.8711 147.706 23.0762C147.589 23.2754 147.492 23.5127 147.416 23.7881C147.34 24.0576 147.278 24.3535 147.231 24.6758C147.185 24.998 147.152 25.335 147.135 25.6865C147.117 26.0381 147.108 26.3926 147.108 26.75C147.108 27.2188 147.126 27.6816 147.161 28.1387C147.202 28.5898 147.223 29.0088 147.223 29.3955C147.223 29.6475 147.129 29.8438 146.941 29.9844C146.754 30.1309 146.487 30.2041 146.142 30.2041C146.077 30.2041 146.004 30.1982 145.922 30.1865C145.84 30.1748 145.761 30.1514 145.685 30.1162C145.614 30.0811 145.55 30.0312 145.491 29.9668C145.438 29.9082 145.409 29.8262 145.403 29.7207C145.351 29.2051 145.274 28.6777 145.175 28.1387C145.075 27.5996 144.949 27.0635 144.797 26.5303C144.65 25.9912 144.472 25.458 144.261 24.9307C144.056 24.4033 143.818 23.8877 143.549 23.3838C143.502 23.2959 143.461 23.2139 143.426 23.1377C143.396 23.0615 143.382 22.9883 143.382 22.918C143.382 22.8301 143.42 22.7363 143.496 22.6367C143.578 22.5312 143.678 22.4346 143.795 22.3467C143.918 22.2588 144.05 22.1885 144.19 22.1357C144.337 22.0771 144.478 22.0479 144.612 22.0479C144.835 22.0479 145.031 22.2031 145.201 22.5137C145.371 22.8184 145.529 23.3076 145.676 23.9814C145.705 24.0986 145.729 24.1807 145.746 24.2275C145.764 24.2744 145.787 24.2979 145.816 24.2979C145.881 24.2979 145.922 24.1982 145.939 23.999C146.01 23.4424 146.13 22.9648 146.3 22.5664C146.47 22.1621 146.681 21.8311 146.933 21.5732C147.19 21.3096 147.483 21.1162 147.812 20.9932C148.146 20.8701 148.512 20.8086 148.91 20.8086C149.139 20.8086 149.37 20.8291 149.604 20.8701C149.839 20.9111 150.05 20.9727 150.237 21.0547C150.425 21.1367 150.577 21.2363 150.694 21.3535C150.812 21.4707 150.87 21.6025 150.87 21.749C150.87 21.8545 150.847 21.9805 150.8 22.127C150.759 22.2676 150.703 22.4053 150.633 22.54C150.562 22.6689 150.48 22.7803 150.387 22.874C150.299 22.9619 150.208 23.0059 150.114 23.0059C150.009 23.0059 149.906 22.9766 149.807 22.918C149.707 22.8535 149.599 22.7861 149.481 22.7158C149.37 22.6455 149.25 22.5811 149.121 22.5225C148.998 22.458 148.857 22.4258 148.699 22.4258ZM150.431 26.082C150.431 25.9824 150.442 25.8711 150.466 25.748C150.489 25.625 150.501 25.4902 150.501 25.3438C150.501 25.2441 150.457 25.168 150.369 25.1152C150.287 25.0625 150.193 25.0039 150.088 24.9395C149.982 24.875 149.886 24.793 149.798 24.6934C149.716 24.5938 149.675 24.4502 149.675 24.2627C149.675 24.1279 149.71 23.9932 149.78 23.8584C149.856 23.7236 149.965 23.6006 150.105 23.4893C150.451 23.2314 150.809 23 151.178 22.7949C151.553 22.5898 151.925 22.417 152.294 22.2764C152.669 22.1357 153.038 22.0273 153.401 21.9512C153.765 21.875 154.113 21.8369 154.447 21.8369C155.01 21.8369 155.537 21.9424 156.029 22.1533C156.527 22.3584 156.958 22.6426 157.321 23.0059C157.69 23.3633 157.98 23.7852 158.191 24.2715C158.408 24.752 158.517 25.2676 158.517 25.8184C158.517 26.3574 158.402 26.8701 158.174 27.3564C157.951 27.8369 157.649 28.2588 157.269 28.6221C156.888 28.9854 156.439 29.2725 155.924 29.4834C155.414 29.7002 154.875 29.8086 154.307 29.8086C153.75 29.8086 153.234 29.7148 152.76 29.5273C152.285 29.3398 151.875 29.082 151.529 28.7539C151.184 28.4199 150.914 28.0273 150.721 27.5762C150.527 27.1191 150.431 26.6211 150.431 26.082ZM154.5 28.2266C154.746 28.2266 155.001 28.1768 155.265 28.0771C155.528 27.9775 155.769 27.834 155.985 27.6465C156.208 27.4531 156.39 27.2188 156.53 26.9434C156.677 26.668 156.75 26.3574 156.75 26.0117C156.75 25.6602 156.686 25.332 156.557 25.0273C156.428 24.7227 156.249 24.459 156.021 24.2363C155.798 24.0078 155.531 23.8291 155.221 23.7002C154.916 23.5713 154.585 23.5068 154.228 23.5068C153.577 23.5068 153.079 23.6768 152.733 24.0166C152.388 24.3506 152.215 24.8662 152.215 25.5635C152.215 25.9443 152.271 26.2988 152.382 26.627C152.499 26.9492 152.66 27.2305 152.865 27.4707C153.07 27.7051 153.311 27.8896 153.586 28.0244C153.867 28.1592 154.172 28.2266 154.5 28.2266ZM163.351 26.8203C163.151 26.8203 162.958 26.835 162.771 26.8643C162.589 26.8936 162.419 26.9258 162.261 26.9609C162.103 26.9902 161.962 27.0195 161.839 27.0488C161.716 27.0781 161.619 27.0928 161.549 27.0928C161.484 27.0928 161.417 27.0664 161.347 27.0137C161.282 26.9551 161.224 26.8818 161.171 26.7939C161.118 26.7061 161.074 26.6094 161.039 26.5039C161.004 26.3984 160.986 26.2959 160.986 26.1963C160.986 26.1084 161.048 25.9854 161.171 25.8271C161.3 25.6689 161.455 25.4902 161.637 25.291C161.824 25.0918 162.026 24.8779 162.243 24.6494C162.466 24.4209 162.668 24.1924 162.85 23.9639C163.037 23.7354 163.192 23.5156 163.315 23.3047C163.444 23.0879 163.509 22.8916 163.509 22.7158C163.509 22.5166 163.436 22.3701 163.289 22.2764C163.143 22.1768 162.952 22.127 162.718 22.127C162.396 22.127 162.073 22.165 161.751 22.2412C161.435 22.3174 161.139 22.4023 160.863 22.4961C160.588 22.5898 160.339 22.6748 160.116 22.751C159.899 22.8271 159.729 22.8652 159.606 22.8652C159.524 22.8652 159.445 22.8418 159.369 22.7949C159.299 22.748 159.234 22.6865 159.176 22.6104C159.117 22.5283 159.07 22.4346 159.035 22.3291C159.006 22.2236 158.991 22.1123 158.991 21.9951C158.991 21.79 159.023 21.6113 159.088 21.459C159.158 21.3008 159.252 21.1982 159.369 21.1514C159.592 21.0693 159.855 20.9932 160.16 20.9229C160.471 20.8467 160.793 20.7793 161.127 20.7207C161.461 20.6621 161.792 20.6182 162.12 20.5889C162.454 20.5537 162.756 20.5361 163.025 20.5361C163.752 20.5361 164.306 20.6826 164.687 20.9756C165.067 21.2627 165.258 21.6816 165.258 22.2324C165.258 22.4785 165.226 22.71 165.161 22.9268C165.103 23.1436 165.006 23.3604 164.871 23.5771C164.742 23.7939 164.578 24.0195 164.379 24.2539C164.18 24.4824 163.939 24.7314 163.658 25.001C163.547 25.1123 163.491 25.2031 163.491 25.2734C163.491 25.373 163.6 25.4346 163.816 25.458C164.385 25.4873 164.886 25.5869 165.319 25.7568C165.759 25.9268 166.128 26.1582 166.427 26.4512C166.726 26.7441 166.951 27.0928 167.104 27.4971C167.262 27.8955 167.341 28.3438 167.341 28.8418C167.341 29.457 167.227 30.0312 166.998 30.5645C166.775 31.1035 166.465 31.5693 166.066 31.9619C165.674 32.3604 165.211 32.6738 164.678 32.9023C164.145 33.1309 163.57 33.2451 162.955 33.2451C162.41 33.2451 161.9 33.1602 161.426 32.9902C160.951 32.8262 160.538 32.5977 160.187 32.3047C159.841 32.0176 159.565 31.6777 159.36 31.2852C159.161 30.8984 159.062 30.4795 159.062 30.0283C159.062 29.8174 159.085 29.6035 159.132 29.3867C159.179 29.1758 159.24 28.9854 159.316 28.8154C159.393 28.6455 159.478 28.5078 159.571 28.4023C159.665 28.2969 159.759 28.2441 159.853 28.2441C159.999 28.2441 160.14 28.2617 160.274 28.2969C160.415 28.3262 160.538 28.3701 160.644 28.4287C160.755 28.4814 160.843 28.543 160.907 28.6133C160.978 28.6836 161.013 28.7539 161.013 28.8242C161.013 28.8828 161.001 28.9414 160.978 29C160.96 29.0645 160.939 29.1318 160.916 29.2021C160.898 29.2783 160.878 29.3574 160.854 29.4395C160.837 29.5215 160.828 29.6094 160.828 29.7031C160.828 29.9668 160.887 30.2158 161.004 30.4502C161.127 30.6904 161.291 30.8984 161.496 31.0742C161.701 31.25 161.941 31.3877 162.217 31.4873C162.492 31.5928 162.785 31.6455 163.096 31.6455C163.471 31.6455 163.811 31.5811 164.115 31.4521C164.426 31.3291 164.689 31.1504 164.906 30.916C165.129 30.6875 165.299 30.4121 165.416 30.0898C165.539 29.7734 165.601 29.4219 165.601 29.0352C165.601 28.7188 165.542 28.4258 165.425 28.1562C165.313 27.8867 165.158 27.6553 164.959 27.4619C164.76 27.2627 164.522 27.1074 164.247 26.9961C163.972 26.8789 163.673 26.8203 163.351 26.8203ZM175.093 27.0752C175.263 26.9287 175.43 26.8555 175.594 26.8555C175.688 26.8555 175.772 26.8789 175.849 26.9258C175.925 26.9727 176.01 27.0459 176.104 27.1455C176.191 27.2803 176.253 27.3916 176.288 27.4795C176.329 27.5615 176.35 27.6436 176.35 27.7256C176.35 27.9014 176.262 28.0684 176.086 28.2266C175.805 28.4609 175.5 28.6719 175.172 28.8594C174.844 29.041 174.501 29.1963 174.144 29.3252C173.786 29.4541 173.417 29.5508 173.036 29.6152C172.655 29.6855 172.277 29.7207 171.902 29.7207C171.428 29.7207 170.982 29.6592 170.566 29.5361C170.15 29.4189 169.778 29.249 169.45 29.0264C169.128 28.8037 168.855 28.5371 168.633 28.2266C168.41 27.9102 168.252 27.5557 168.158 27.1631C168.105 26.999 168.056 26.8936 168.009 26.8467C167.968 26.7939 167.897 26.7676 167.798 26.7676C167.581 26.7676 167.414 26.7148 167.297 26.6094C167.18 26.5039 167.121 26.3516 167.121 26.1523C167.121 26.0703 167.127 26.0176 167.139 25.9941L167.156 25.8184C167.186 25.6074 167.241 25.4551 167.323 25.3613C167.411 25.2676 167.546 25.2207 167.728 25.2207H167.859C168.105 25.2207 168.278 25.1064 168.378 24.8779C168.56 24.4736 168.791 24.1045 169.072 23.7705C169.354 23.4365 169.67 23.1523 170.021 22.918C170.373 22.6777 170.748 22.4932 171.146 22.3643C171.551 22.2295 171.961 22.1621 172.377 22.1621C172.811 22.1621 173.215 22.2266 173.59 22.3555C173.971 22.4785 174.302 22.6514 174.583 22.874C174.864 23.0967 175.084 23.3574 175.242 23.6562C175.406 23.9551 175.488 24.2773 175.488 24.623C175.488 24.8633 175.441 25.083 175.348 25.2822C175.254 25.4814 175.119 25.6572 174.943 25.8096C174.768 25.9561 174.554 26.0762 174.302 26.1699C174.056 26.2637 173.774 26.3252 173.458 26.3545L170.408 26.6621C170.291 26.6621 170.194 26.6914 170.118 26.75C170.048 26.8086 170.013 26.8877 170.013 26.9873C170.013 27.1396 170.068 27.2861 170.18 27.4268C170.297 27.5674 170.449 27.6934 170.637 27.8047C170.83 27.9102 171.05 27.9951 171.296 28.0596C171.548 28.124 171.806 28.1562 172.069 28.1562C172.321 28.1562 172.579 28.1328 172.843 28.0859C173.112 28.0332 173.376 27.96 173.634 27.8662C173.897 27.7725 174.152 27.6611 174.398 27.5322C174.645 27.3975 174.876 27.2451 175.093 27.0752ZM173.133 24.8076C173.221 24.79 173.297 24.749 173.361 24.6846C173.426 24.6143 173.458 24.5293 173.458 24.4297C173.458 24.3418 173.426 24.2598 173.361 24.1836C173.297 24.1074 173.209 24.04 173.098 23.9814C172.986 23.917 172.857 23.8672 172.711 23.832C172.564 23.7969 172.409 23.7793 172.245 23.7793C172.005 23.7793 171.759 23.8145 171.507 23.8848C171.255 23.9551 171.026 24.0488 170.821 24.166C170.616 24.2773 170.449 24.4033 170.32 24.5439C170.191 24.6787 170.127 24.8135 170.127 24.9482C170.127 25.083 170.209 25.1504 170.373 25.1504C170.473 25.1504 170.634 25.1387 170.856 25.1152C171.079 25.0918 171.325 25.0654 171.595 25.0361C171.864 25.001 172.137 24.9629 172.412 24.9219C172.688 24.8809 172.928 24.8428 173.133 24.8076ZM177.062 21.9072C177.062 21.8193 177.1 21.7344 177.176 21.6523C177.252 21.5645 177.352 21.4883 177.475 21.4238C177.598 21.3535 177.735 21.2979 177.888 21.2568C178.046 21.21 178.204 21.1865 178.362 21.1865C178.45 21.1865 178.523 21.21 178.582 21.2568C178.646 21.3037 178.702 21.3945 178.749 21.5293C178.796 21.6582 178.837 21.8428 178.872 22.083C178.913 22.3174 178.951 22.625 178.986 23.0059C179.01 23.123 179.03 23.2139 179.048 23.2783C179.071 23.3369 179.101 23.3662 179.136 23.3662C179.188 23.3662 179.241 23.2754 179.294 23.0938C179.722 21.8574 180.34 21.2393 181.148 21.2393C181.523 21.2393 181.863 21.3564 182.168 21.5908C182.479 21.8252 182.766 22.209 183.029 22.7422C183.299 23.2695 183.554 23.9668 183.794 24.834C184.034 25.6953 184.274 26.7588 184.515 28.0244C184.526 28.0889 184.535 28.1475 184.541 28.2002C184.547 28.2529 184.55 28.3027 184.55 28.3496C184.55 28.4844 184.518 28.6016 184.453 28.7012C184.395 28.7949 184.315 28.874 184.216 28.9385C184.116 28.9971 184.005 29.041 183.882 29.0703C183.759 29.1055 183.636 29.123 183.513 29.123C183.267 29.123 183.088 29.0967 182.977 29.0439C182.871 28.9912 182.804 28.8916 182.774 28.7451C182.604 27.8545 182.438 27.0635 182.273 26.3721C182.115 25.6807 181.957 25.1006 181.799 24.6318C181.646 24.1572 181.494 23.7969 181.342 23.5508C181.189 23.3047 181.037 23.1816 180.885 23.1816C180.732 23.1816 180.589 23.2783 180.454 23.4717C180.325 23.6592 180.199 23.9551 180.076 24.3594C179.953 24.7637 179.833 25.2764 179.716 25.8975C179.604 26.5186 179.496 27.2598 179.391 28.1211C179.361 28.3555 179.244 28.543 179.039 28.6836C178.834 28.8242 178.573 28.8945 178.257 28.8945C178.046 28.8945 177.885 28.8506 177.773 28.7627C177.662 28.6748 177.601 28.5547 177.589 28.4023C177.536 27.1836 177.478 26.1816 177.413 25.3965C177.354 24.6055 177.299 23.9727 177.246 23.498C177.193 23.0176 177.149 22.6602 177.114 22.4258C177.079 22.1914 177.062 22.0186 177.062 21.9072ZM185.341 18.9189C185.317 18.8369 185.297 18.7637 185.279 18.6992C185.268 18.6348 185.262 18.5703 185.262 18.5059C185.262 18.3418 185.312 18.2041 185.411 18.0928C185.517 17.9814 185.672 17.9258 185.877 17.9258C186.785 17.9258 187.283 18.1426 187.371 18.5762C187.477 19.127 187.573 19.6807 187.661 20.2373C187.749 20.7939 187.825 21.3594 187.89 21.9336C187.96 22.502 188.013 23.082 188.048 23.6738C188.089 24.2598 188.109 24.8604 188.109 25.4756C188.109 25.5928 188.104 25.707 188.092 25.8184C188.08 25.9238 188.057 26.0205 188.021 26.1084C187.986 26.1904 187.937 26.2578 187.872 26.3105C187.813 26.3633 187.731 26.3896 187.626 26.3896L186.888 26.2842C186.735 26.2666 186.627 26.2227 186.562 26.1523C186.504 26.0762 186.469 25.9707 186.457 25.8359C186.41 24.7637 186.293 23.6416 186.105 22.4697C185.918 21.2979 185.663 20.1143 185.341 18.9189ZM187.151 29.7383C186.981 29.7383 186.82 29.7119 186.668 29.6592C186.521 29.6123 186.393 29.542 186.281 29.4482C186.176 29.3604 186.091 29.2549 186.026 29.1318C185.962 29.0088 185.93 28.874 185.93 28.7275C185.93 28.4814 186.026 28.2822 186.22 28.1299C186.419 27.9775 186.683 27.9014 187.011 27.9014C187.163 27.9014 187.31 27.9307 187.45 27.9893C187.591 28.042 187.714 28.1152 187.819 28.209C187.931 28.3027 188.019 28.4141 188.083 28.543C188.147 28.666 188.18 28.7949 188.18 28.9297C188.18 29.1816 188.086 29.3779 187.898 29.5186C187.717 29.665 187.468 29.7383 187.151 29.7383Z" fill="black"/>
<path d="M4.16895 6.74902C4.47363 6.74902 4.76953 6.79297 5.05664 6.88086C5.34375 6.96875 5.5957 7.08887 5.8125 7.24121C6.03516 7.3877 6.21387 7.55762 6.34863 7.75098C6.4834 7.93848 6.55078 8.13184 6.55078 8.33105C6.55078 8.45996 6.52441 8.58594 6.47168 8.70898C6.41895 8.82617 6.34863 8.93164 6.26074 9.02539C6.17285 9.11328 6.07324 9.18652 5.96191 9.24512C5.85059 9.29785 5.7334 9.32422 5.61035 9.32422C5.47559 9.32422 5.35254 9.27441 5.24121 9.1748C5.12988 9.06934 5.00977 8.95508 4.88086 8.83203C4.75781 8.70312 4.61719 8.58887 4.45898 8.48926C4.30664 8.38379 4.12207 8.33105 3.90527 8.33105C3.69434 8.33105 3.50391 8.38086 3.33398 8.48047C3.16406 8.58008 3.02051 8.7207 2.90332 8.90234C2.79199 9.07812 2.7041 9.28906 2.63965 9.53516C2.58105 9.77539 2.55176 10.0391 2.55176 10.3262C2.55176 11.1465 2.70703 11.7734 3.01758 12.207C3.32812 12.6348 3.77344 12.8486 4.35352 12.8486C4.62891 12.8486 4.86328 12.8047 5.05664 12.7168C5.25586 12.6289 5.42871 12.5322 5.5752 12.4268C5.72754 12.3213 5.86523 12.2246 5.98828 12.1367C6.11133 12.0488 6.2373 12.0049 6.36621 12.0049C6.43652 12.0049 6.50684 12.0283 6.57715 12.0752C6.64746 12.1162 6.70898 12.1719 6.76172 12.2422C6.82031 12.3066 6.86719 12.3799 6.90234 12.4619C6.94336 12.5439 6.96387 12.626 6.96387 12.708C6.96387 12.9014 6.86719 13.1006 6.67383 13.3057C6.48633 13.5107 6.24316 13.6982 5.94434 13.8682C5.64551 14.0322 5.31152 14.167 4.94238 14.2725C4.5791 14.3779 4.22461 14.4307 3.87891 14.4307C3.41602 14.4307 2.99121 14.3398 2.60449 14.1582C2.21777 13.9824 1.88379 13.7363 1.60254 13.4199C1.32129 13.0977 1.10156 12.7139 0.943359 12.2686C0.791016 11.8232 0.714844 11.3311 0.714844 10.792C0.714844 10.2061 0.799805 9.66699 0.969727 9.1748C1.14551 8.68262 1.38574 8.25781 1.69043 7.90039C2.00098 7.53711 2.36719 7.25586 2.78906 7.05664C3.21094 6.85156 3.6709 6.74902 4.16895 6.74902ZM6.70898 3.98926C6.70898 3.68457 6.79688 3.46777 6.97266 3.33887C7.14844 3.20996 7.43848 3.14551 7.84277 3.14551C7.9834 3.14551 8.10645 3.16016 8.21191 3.18945C8.31738 3.21875 8.40527 3.26855 8.47559 3.33887C8.5459 3.40332 8.60156 3.49414 8.64258 3.61133C8.68945 3.72266 8.72754 3.86621 8.75684 4.04199C8.83301 4.56348 8.90918 5.11133 8.98535 5.68555C9.06738 6.25391 9.14355 6.82227 9.21387 7.39062C9.29004 7.95312 9.36035 8.50391 9.4248 9.04297C9.48926 9.57617 9.54492 10.0742 9.5918 10.5371C9.64453 10.9941 9.68262 11.4014 9.70605 11.7588C9.73535 12.1104 9.75 12.3887 9.75 12.5938C9.75 12.8047 9.72949 12.9834 9.68848 13.1299C9.65332 13.2764 9.58887 13.3936 9.49512 13.4814C9.40723 13.5693 9.29004 13.6338 9.14355 13.6748C9.00293 13.71 8.82715 13.7275 8.61621 13.7275C8.41113 13.7275 8.24707 13.6748 8.12402 13.5693C8.00684 13.4639 7.94824 13.3027 7.94824 13.0859C7.94824 12.8633 7.93066 12.5674 7.89551 12.1982C7.86035 11.8232 7.81348 11.4072 7.75488 10.9502C7.69629 10.4932 7.62891 10.0068 7.55273 9.49121C7.48242 8.97559 7.40625 8.46582 7.32422 7.96191C7.24805 7.45801 7.17188 6.97461 7.0957 6.51172C7.02539 6.04297 6.96094 5.62988 6.90234 5.27246C6.84375 4.90918 6.79688 4.61328 6.76172 4.38477C6.72656 4.15039 6.70898 4.01855 6.70898 3.98926ZM12.4746 5.03516C12.3047 5.03516 12.1436 5.01172 11.9912 4.96484C11.8447 4.91211 11.7158 4.8418 11.6045 4.75391C11.499 4.66016 11.4141 4.55176 11.3496 4.42871C11.2852 4.30566 11.2529 4.1709 11.2529 4.02441C11.2529 3.77832 11.3496 3.5791 11.543 3.42676C11.7422 3.27441 12.0059 3.19824 12.334 3.19824C12.4863 3.19824 12.6328 3.22754 12.7734 3.28613C12.9141 3.33887 13.0371 3.41211 13.1426 3.50586C13.2539 3.59961 13.3418 3.71094 13.4062 3.83984C13.4707 3.96289 13.5029 4.0918 13.5029 4.22656C13.5029 4.47852 13.4092 4.67773 13.2217 4.82422C13.04 4.96484 12.791 5.03516 12.4746 5.03516ZM11.2705 7.71582C11.2705 7.51074 11.3584 7.34375 11.5342 7.21484C11.7158 7.08008 11.9531 7.0127 12.2461 7.0127C12.7734 7.0127 13.0547 7.19434 13.0898 7.55762C13.1133 7.80957 13.1367 8.09375 13.1602 8.41016C13.1895 8.72656 13.2158 9.06348 13.2393 9.4209C13.2686 9.77246 13.292 10.1387 13.3096 10.5195C13.333 10.8945 13.3535 11.2666 13.3711 11.6357C13.3887 11.999 13.4033 12.3506 13.415 12.6904C13.4268 13.0303 13.4326 13.3408 13.4326 13.6221C13.4326 13.915 13.3271 14.1348 13.1162 14.2812C12.9111 14.4277 12.6094 14.501 12.2109 14.501C12.0293 14.501 11.8857 14.457 11.7803 14.3691C11.6807 14.2871 11.6309 14.1641 11.6309 14C11.6309 13.1914 11.6104 12.4355 11.5693 11.7324C11.5342 11.0234 11.4932 10.3936 11.4463 9.84277C11.4053 9.29199 11.3643 8.83496 11.3232 8.47168C11.2881 8.10254 11.2705 7.85059 11.2705 7.71582ZM18.1611 6.74902C18.4658 6.74902 18.7617 6.79297 19.0488 6.88086C19.3359 6.96875 19.5879 7.08887 19.8047 7.24121C20.0273 7.3877 20.2061 7.55762 20.3408 7.75098C20.4756 7.93848 20.543 8.13184 20.543 8.33105C20.543 8.45996 20.5166 8.58594 20.4639 8.70898C20.4111 8.82617 20.3408 8.93164 20.2529 9.02539C20.165 9.11328 20.0654 9.18652 19.9541 9.24512C19.8428 9.29785 19.7256 9.32422 19.6025 9.32422C19.4678 9.32422 19.3447 9.27441 19.2334 9.1748C19.1221 9.06934 19.002 8.95508 18.873 8.83203C18.75 8.70312 18.6094 8.58887 18.4512 8.48926C18.2988 8.38379 18.1143 8.33105 17.8975 8.33105C17.6865 8.33105 17.4961 8.38086 17.3262 8.48047C17.1562 8.58008 17.0127 8.7207 16.8955 8.90234C16.7842 9.07812 16.6963 9.28906 16.6318 9.53516C16.5732 9.77539 16.5439 10.0391 16.5439 10.3262C16.5439 11.1465 16.6992 11.7734 17.0098 12.207C17.3203 12.6348 17.7656 12.8486 18.3457 12.8486C18.6211 12.8486 18.8555 12.8047 19.0488 12.7168C19.248 12.6289 19.4209 12.5322 19.5674 12.4268C19.7197 12.3213 19.8574 12.2246 19.9805 12.1367C20.1035 12.0488 20.2295 12.0049 20.3584 12.0049C20.4287 12.0049 20.499 12.0283 20.5693 12.0752C20.6396 12.1162 20.7012 12.1719 20.7539 12.2422C20.8125 12.3066 20.8594 12.3799 20.8945 12.4619C20.9355 12.5439 20.9561 12.626 20.9561 12.708C20.9561 12.9014 20.8594 13.1006 20.666 13.3057C20.4785 13.5107 20.2354 13.6982 19.9365 13.8682C19.6377 14.0322 19.3037 14.167 18.9346 14.2725C18.5713 14.3779 18.2168 14.4307 17.8711 14.4307C17.4082 14.4307 16.9834 14.3398 16.5967 14.1582C16.21 13.9824 15.876 13.7363 15.5947 13.4199C15.3135 13.0977 15.0938 12.7139 14.9355 12.2686C14.7832 11.8232 14.707 11.3311 14.707 10.792C14.707 10.2061 14.792 9.66699 14.9619 9.1748C15.1377 8.68262 15.3779 8.25781 15.6826 7.90039C15.9932 7.53711 16.3594 7.25586 16.7812 7.05664C17.2031 6.85156 17.6631 6.74902 18.1611 6.74902ZM21.7031 13.8242C21.7031 13.3145 21.6885 12.7607 21.6592 12.1631C21.6299 11.5654 21.5918 10.9619 21.5449 10.3525C21.5039 9.7373 21.457 9.13672 21.4043 8.55078C21.3574 7.96484 21.3105 7.42871 21.2637 6.94238C21.2227 6.45605 21.1875 6.03711 21.1582 5.68555C21.1289 5.33398 21.1143 5.08789 21.1143 4.94727C21.1143 4.71289 21.2021 4.53418 21.3779 4.41113C21.5537 4.28809 21.8086 4.22656 22.1426 4.22656C22.2891 4.22656 22.4121 4.24121 22.5117 4.27051C22.6172 4.2998 22.7021 4.34961 22.7666 4.41992C22.8311 4.49023 22.8809 4.58398 22.916 4.70117C22.957 4.8125 22.9863 4.95313 23.0039 5.12305C23.0273 5.35742 23.0479 5.60938 23.0654 5.87891C23.083 6.14258 23.1006 6.44434 23.1182 6.78418C23.1416 7.12402 23.165 7.50781 23.1885 7.93555C23.2119 8.36328 23.2412 8.85547 23.2764 9.41211C23.2764 9.49414 23.291 9.55273 23.3203 9.58789C23.3496 9.62305 23.3818 9.64062 23.417 9.64062C23.4814 9.64062 23.54 9.58789 23.5928 9.48242C24.0908 8.46875 24.6123 7.69531 25.1572 7.16211C25.7021 6.62305 26.2324 6.35352 26.748 6.35352C27.0527 6.35352 27.293 6.44434 27.4688 6.62598C27.6445 6.80762 27.7324 7.05078 27.7324 7.35547C27.7324 7.68359 27.6592 7.98828 27.5127 8.26953C27.3721 8.54492 27.1934 8.80566 26.9766 9.05176C26.7656 9.29785 26.5342 9.5293 26.2822 9.74609C26.0361 9.96289 25.8047 10.1738 25.5879 10.3789C25.377 10.584 25.1982 10.7861 25.0518 10.9854C24.9111 11.1787 24.8408 11.375 24.8408 11.5742C24.8408 11.7559 24.9463 11.9434 25.1572 12.1367C25.374 12.3242 25.6846 12.5117 26.0889 12.6992C26.4932 12.8809 26.9883 13.0596 27.5742 13.2354C28.1602 13.4053 28.8252 13.5693 29.5693 13.7275C29.6865 13.7568 29.7686 13.8037 29.8154 13.8682C29.8682 13.9326 29.8945 14.0176 29.8945 14.123C29.8945 14.252 29.8652 14.3838 29.8066 14.5186C29.748 14.6592 29.6748 14.7852 29.5869 14.8965C29.499 15.0137 29.3994 15.1074 29.2881 15.1777C29.1826 15.2539 29.0801 15.292 28.9805 15.292C28.7812 15.292 28.5439 15.2656 28.2686 15.2129C27.9932 15.1602 27.6943 15.0869 27.3721 14.9932C27.0557 14.9053 26.7275 14.7998 26.3877 14.6768C26.0479 14.5596 25.7168 14.4307 25.3945 14.29C25.0781 14.1553 24.7764 14.0146 24.4893 13.8682C24.208 13.7158 23.9648 13.5664 23.7598 13.4199C23.6953 13.3848 23.6426 13.3555 23.6016 13.332C23.5664 13.3086 23.5342 13.2969 23.5049 13.2969C23.4697 13.2969 23.4492 13.3115 23.4434 13.3408C23.4375 13.3643 23.4346 13.417 23.4346 13.499C23.4346 13.7041 23.417 13.8711 23.3818 14C23.3525 14.1289 23.2998 14.2285 23.2236 14.2988C23.1475 14.375 23.042 14.4277 22.9072 14.457C22.7725 14.4863 22.6055 14.501 22.4062 14.501C22.1426 14.501 21.958 14.4512 21.8525 14.3516C21.7529 14.252 21.7031 14.0762 21.7031 13.8242ZM33.5947 11.082C33.5947 10.9824 33.6064 10.8711 33.6299 10.748C33.6533 10.625 33.665 10.4902 33.665 10.3438C33.665 10.2441 33.6211 10.168 33.5332 10.1152C33.4512 10.0625 33.3574 10.0039 33.252 9.93945C33.1465 9.875 33.0498 9.79297 32.9619 9.69336C32.8799 9.59375 32.8389 9.4502 32.8389 9.2627C32.8389 9.12793 32.874 8.99316 32.9443 8.8584C33.0205 8.72363 33.1289 8.60059 33.2695 8.48926C33.6152 8.23145 33.9727 8 34.3418 7.79492C34.7168 7.58984 35.0889 7.41699 35.458 7.27637C35.833 7.13574 36.2021 7.02734 36.5654 6.95117C36.9287 6.875 37.2773 6.83691 37.6113 6.83691C38.1738 6.83691 38.7012 6.94238 39.1934 7.15332C39.6914 7.3584 40.1221 7.64258 40.4854 8.00586C40.8545 8.36328 41.1445 8.78516 41.3555 9.27148C41.5723 9.75195 41.6807 10.2676 41.6807 10.8184C41.6807 11.3574 41.5664 11.8701 41.3379 12.3564C41.1152 12.8369 40.8135 13.2588 40.4326 13.6221C40.0518 13.9854 39.6035 14.2725 39.0879 14.4834C38.5781 14.7002 38.0391 14.8086 37.4707 14.8086C36.9141 14.8086 36.3984 14.7148 35.9238 14.5273C35.4492 14.3398 35.0391 14.082 34.6934 13.7539C34.3477 13.4199 34.0781 13.0273 33.8848 12.5762C33.6914 12.1191 33.5947 11.6211 33.5947 11.082ZM37.6641 13.2266C37.9102 13.2266 38.165 13.1768 38.4287 13.0771C38.6924 12.9775 38.9326 12.834 39.1494 12.6465C39.3721 12.4531 39.5537 12.2188 39.6943 11.9434C39.8408 11.668 39.9141 11.3574 39.9141 11.0117C39.9141 10.6602 39.8496 10.332 39.7207 10.0273C39.5918 9.72266 39.4131 9.45898 39.1846 9.23633C38.9619 9.00781 38.6953 8.8291 38.3848 8.7002C38.0801 8.57129 37.749 8.50684 37.3916 8.50684C36.7412 8.50684 36.2432 8.67676 35.8975 9.0166C35.5518 9.35059 35.3789 9.86621 35.3789 10.5635C35.3789 10.9443 35.4346 11.2988 35.5459 11.627C35.6631 11.9492 35.8242 12.2305 36.0293 12.4707C36.2344 12.7051 36.4746 12.8896 36.75 13.0244C37.0312 13.1592 37.3359 13.2266 37.6641 13.2266ZM42.9814 6.90723C42.9814 6.81934 43.0195 6.73438 43.0957 6.65234C43.1719 6.56445 43.2715 6.48828 43.3945 6.42383C43.5176 6.35352 43.6553 6.29785 43.8076 6.25684C43.9658 6.20996 44.124 6.18652 44.2822 6.18652C44.3701 6.18652 44.4434 6.20996 44.502 6.25684C44.5664 6.30371 44.6221 6.39453 44.6689 6.5293C44.7158 6.6582 44.7568 6.84277 44.792 7.08301C44.833 7.31738 44.8711 7.625 44.9062 8.00586C44.9297 8.12305 44.9502 8.21387 44.9678 8.27832C44.9912 8.33691 45.0205 8.36621 45.0557 8.36621C45.1084 8.36621 45.1611 8.27539 45.2139 8.09375C45.6416 6.85742 46.2598 6.23926 47.0684 6.23926C47.4434 6.23926 47.7832 6.35645 48.0879 6.59082C48.3984 6.8252 48.6855 7.20898 48.9492 7.74219C49.2188 8.26953 49.4736 8.9668 49.7139 9.83398C49.9541 10.6953 50.1943 11.7588 50.4346 13.0244C50.4463 13.0889 50.4551 13.1475 50.4609 13.2002C50.4668 13.2529 50.4697 13.3027 50.4697 13.3496C50.4697 13.4844 50.4375 13.6016 50.373 13.7012C50.3145 13.7949 50.2354 13.874 50.1357 13.9385C50.0361 13.9971 49.9248 14.041 49.8018 14.0703C49.6787 14.1055 49.5557 14.123 49.4326 14.123C49.1865 14.123 49.0078 14.0967 48.8965 14.0439C48.791 13.9912 48.7236 13.8916 48.6943 13.7451C48.5244 12.8545 48.3574 12.0635 48.1934 11.3721C48.0352 10.6807 47.877 10.1006 47.7188 9.63184C47.5664 9.15723 47.4141 8.79688 47.2617 8.55078C47.1094 8.30469 46.957 8.18164 46.8047 8.18164C46.6523 8.18164 46.5088 8.27832 46.374 8.47168C46.2451 8.65918 46.1191 8.95508 45.9961 9.35938C45.873 9.76367 45.7529 10.2764 45.6357 10.8975C45.5244 11.5186 45.416 12.2598 45.3105 13.1211C45.2812 13.3555 45.1641 13.543 44.959 13.6836C44.7539 13.8242 44.4932 13.8945 44.1768 13.8945C43.9658 13.8945 43.8047 13.8506 43.6934 13.7627C43.582 13.6748 43.5205 13.5547 43.5088 13.4023C43.4561 12.1836 43.3975 11.1816 43.333 10.3965C43.2744 9.60547 43.2188 8.97266 43.166 8.49805C43.1133 8.01758 43.0693 7.66016 43.0342 7.42578C42.999 7.19141 42.9814 7.01855 42.9814 6.90723ZM14.874 23.3184C15.1963 23.3184 15.5068 23.3682 15.8057 23.4678C16.1045 23.5674 16.3682 23.7051 16.5967 23.8809C16.8252 24.0566 17.0068 24.2676 17.1416 24.5137C17.2822 24.7598 17.3525 25.0322 17.3525 25.3311C17.3525 25.4541 17.3232 25.5742 17.2646 25.6914C17.2119 25.8027 17.1387 25.9023 17.0449 25.9902C16.9512 26.0723 16.8428 26.1396 16.7197 26.1924C16.6025 26.2393 16.4795 26.2627 16.3506 26.2627C16.3389 26.2627 16.3271 26.2656 16.3154 26.2715C16.3096 26.2715 16.3008 26.2715 16.2891 26.2715C16.2773 26.2773 16.2656 26.2803 16.2539 26.2803L16.2891 26.9834C16.3125 27.8213 16.4297 28.4336 16.6406 28.8203C16.8574 29.207 17.1387 29.4004 17.4844 29.4004C17.6074 29.4004 17.7158 29.3887 17.8096 29.3652C17.9092 29.3418 18 29.3154 18.082 29.2861C18.1699 29.251 18.252 29.2217 18.3281 29.1982C18.4043 29.1748 18.4805 29.1631 18.5566 29.1631C18.6914 29.1631 18.8086 29.2217 18.9082 29.3389C19.0137 29.4561 19.0664 29.5967 19.0664 29.7607C19.0664 29.9248 19.002 30.0889 18.873 30.2529C18.75 30.417 18.5859 30.5664 18.3809 30.7012C18.1758 30.8301 17.9443 30.9355 17.6865 31.0176C17.4287 31.0996 17.168 31.1406 16.9043 31.1406C16.4473 31.1406 16.0459 30.9531 15.7002 30.5781C15.3545 30.1973 15.1084 29.6406 14.9619 28.9082C14.9268 28.791 14.8799 28.7324 14.8213 28.7324C14.751 28.7324 14.6895 28.7676 14.6367 28.8379C14.0566 29.5703 13.4385 30.1211 12.7822 30.4902C12.126 30.8535 11.4785 31.0352 10.8398 31.0352C10.541 31.0352 10.2715 30.9912 10.0312 30.9033C9.79102 30.8154 9.58594 30.6924 9.41602 30.5342C9.25195 30.3701 9.12305 30.1738 9.0293 29.9453C8.94141 29.7109 8.89746 29.4502 8.89746 29.1631C8.89746 28.7588 8.98535 28.334 9.16113 27.8887C9.34277 27.4434 9.58594 27.0039 9.89062 26.5703C10.1953 26.1367 10.5469 25.7236 10.9453 25.3311C11.3496 24.9385 11.7715 24.5928 12.2109 24.2939C12.6562 23.9951 13.1074 23.7578 13.5645 23.582C14.0215 23.4062 14.458 23.3184 14.874 23.3184ZM14.584 26.3594C14.6895 26.1602 14.7861 26.0166 14.874 25.9287C14.9619 25.835 15.0879 25.7734 15.252 25.7441C15.3809 25.7266 15.4453 25.6855 15.4453 25.6211C15.4453 25.5742 15.4277 25.5244 15.3926 25.4717C15.2812 25.3193 15.1641 25.1875 15.041 25.0762C14.918 24.959 14.7539 24.9004 14.5488 24.9004C14.3262 24.9004 14.0771 24.9648 13.8018 25.0938C13.5264 25.2227 13.2451 25.3955 12.958 25.6123C12.6768 25.8232 12.3984 26.0664 12.123 26.3418C11.8535 26.6113 11.6133 26.8896 11.4023 27.1768C11.1914 27.4639 11.0215 27.748 10.8926 28.0293C10.7637 28.3105 10.6992 28.5625 10.6992 28.7852C10.6992 28.9844 10.752 29.1396 10.8574 29.251C10.9688 29.3623 11.1182 29.418 11.3057 29.418C11.7861 29.418 12.3105 29.1631 12.8789 28.6533C13.4473 28.1436 14.0156 27.3789 14.584 26.3594ZM29.5078 24.5752C29.5312 24.5869 29.5664 24.5928 29.6133 24.5928C29.7422 24.5928 29.8066 24.5078 29.8066 24.3379V21.6045C29.8066 21.2588 29.8828 21.0127 30.0352 20.8662C30.1934 20.7197 30.4541 20.6465 30.8174 20.6465C31.1865 20.6465 31.4473 20.7227 31.5996 20.875C31.752 21.0273 31.8281 21.2881 31.8281 21.6572C31.8281 21.7979 31.8193 22.0059 31.8018 22.2812C31.7842 22.5508 31.7637 22.8584 31.7402 23.2041C31.7227 23.5498 31.7051 23.9219 31.6875 24.3203C31.6699 24.7129 31.6611 25.1025 31.6611 25.4893C31.6611 26.0869 31.7021 26.6025 31.7842 27.0361C31.8662 27.4697 31.9834 27.8301 32.1357 28.1172C32.2881 28.3984 32.4697 28.6094 32.6807 28.75C32.8916 28.8848 33.1289 28.9521 33.3926 28.9521C33.5391 28.9521 33.6709 28.9346 33.7881 28.8994C33.9111 28.8584 34.0547 28.8379 34.2188 28.8379C34.3359 28.8379 34.4326 28.8994 34.5088 29.0225C34.5908 29.1396 34.6318 29.2832 34.6318 29.4531C34.6318 29.6055 34.585 29.749 34.4912 29.8838C34.4033 30.0186 34.2803 30.1357 34.1221 30.2354C33.9697 30.335 33.791 30.4141 33.5859 30.4727C33.3809 30.5254 33.167 30.5518 32.9443 30.5518C32.4639 30.5518 32.0244 30.4053 31.626 30.1123C31.2275 29.8135 30.9287 29.3594 30.7295 28.75C30.7119 28.6562 30.6826 28.6094 30.6416 28.6094C30.5947 28.6094 30.5566 28.6562 30.5273 28.75C30.3691 29.1777 30.1611 29.5645 29.9033 29.9102C29.6514 30.25 29.3555 30.543 29.0156 30.7891C28.6816 31.0293 28.3125 31.2139 27.9082 31.3428C27.5098 31.4717 27.0879 31.5361 26.6426 31.5361C26.1738 31.5361 25.7432 31.457 25.3506 31.2988C24.9639 31.1465 24.6299 30.9326 24.3486 30.6572C24.0674 30.376 23.8477 30.0479 23.6895 29.6729C23.5312 29.292 23.4521 28.8818 23.4521 28.4424C23.4521 27.8799 23.5693 27.3496 23.8037 26.8516C24.0381 26.3535 24.3545 25.9199 24.7529 25.5508C25.1572 25.1758 25.626 24.8799 26.1592 24.6631C26.6924 24.4463 27.2607 24.3379 27.8643 24.3379C28.1104 24.3379 28.3711 24.3584 28.6465 24.3994C28.9219 24.4346 29.209 24.4932 29.5078 24.5752ZM26.9854 29.9541C27.3193 29.9541 27.6152 29.8809 27.873 29.7344C28.1367 29.5879 28.3682 29.4033 28.5674 29.1807C28.7725 28.9521 28.9453 28.7031 29.0859 28.4336C29.2266 28.1582 29.3408 27.8916 29.4287 27.6338C29.5166 27.376 29.5811 27.1445 29.6221 26.9395C29.6631 26.7344 29.6836 26.5879 29.6836 26.5C29.6836 26.4355 29.666 26.3799 29.6309 26.333C29.5957 26.2803 29.543 26.2393 29.4727 26.21C29.3145 26.1689 29.1504 26.1338 28.9805 26.1045C28.8105 26.0693 28.6436 26.04 28.4795 26.0166C28.3154 25.9932 28.1572 25.9756 28.0049 25.9639C27.8584 25.9521 27.7236 25.9463 27.6006 25.9463C27.249 25.9463 26.9297 25.999 26.6426 26.1045C26.3555 26.21 26.1094 26.3594 25.9043 26.5527C25.7051 26.7461 25.5498 26.9775 25.4385 27.2471C25.3271 27.5107 25.2715 27.8008 25.2715 28.1172C25.2715 28.3984 25.3125 28.6533 25.3945 28.8818C25.4824 29.1045 25.5996 29.2949 25.7461 29.4531C25.8984 29.6113 26.0801 29.7344 26.291 29.8223C26.502 29.9102 26.7334 29.9541 26.9854 29.9541ZM35.4932 22.0352C35.3232 22.0352 35.1621 22.0117 35.0098 21.9648C34.8633 21.9121 34.7344 21.8418 34.623 21.7539C34.5176 21.6602 34.4326 21.5518 34.3682 21.4287C34.3037 21.3057 34.2715 21.1709 34.2715 21.0244C34.2715 20.7783 34.3682 20.5791 34.5615 20.4268C34.7607 20.2744 35.0244 20.1982 35.3525 20.1982C35.5049 20.1982 35.6514 20.2275 35.792 20.2861C35.9326 20.3389 36.0557 20.4121 36.1611 20.5059C36.2725 20.5996 36.3604 20.7109 36.4248 20.8398C36.4893 20.9629 36.5215 21.0918 36.5215 21.2266C36.5215 21.4785 36.4277 21.6777 36.2402 21.8242C36.0586 21.9648 35.8096 22.0352 35.4932 22.0352ZM34.2891 24.7158C34.2891 24.5107 34.377 24.3438 34.5527 24.2148C34.7344 24.0801 34.9717 24.0127 35.2646 24.0127C35.792 24.0127 36.0732 24.1943 36.1084 24.5576C36.1318 24.8096 36.1553 25.0938 36.1787 25.4102C36.208 25.7266 36.2344 26.0635 36.2578 26.4209C36.2871 26.7725 36.3105 27.1387 36.3281 27.5195C36.3516 27.8945 36.3721 28.2666 36.3896 28.6357C36.4072 28.999 36.4219 29.3506 36.4336 29.6904C36.4453 30.0303 36.4512 30.3408 36.4512 30.6221C36.4512 30.915 36.3457 31.1348 36.1348 31.2812C35.9297 31.4277 35.6279 31.501 35.2295 31.501C35.0479 31.501 34.9043 31.457 34.7988 31.3691C34.6992 31.2871 34.6494 31.1641 34.6494 31C34.6494 30.1914 34.6289 29.4355 34.5879 28.7324C34.5527 28.0234 34.5117 27.3936 34.4648 26.8428C34.4238 26.292 34.3828 25.835 34.3418 25.4717C34.3066 25.1025 34.2891 24.8506 34.2891 24.7158ZM45.5566 29.0752C45.7266 28.9287 45.8936 28.8555 46.0576 28.8555C46.1514 28.8555 46.2363 28.8789 46.3125 28.9258C46.3887 28.9727 46.4736 29.0459 46.5674 29.1455C46.6553 29.2803 46.7168 29.3916 46.752 29.4795C46.793 29.5615 46.8135 29.6436 46.8135 29.7256C46.8135 29.9014 46.7256 30.0684 46.5498 30.2266C46.2686 30.4609 45.9639 30.6719 45.6357 30.8594C45.3076 31.041 44.9648 31.1963 44.6074 31.3252C44.25 31.4541 43.8809 31.5508 43.5 31.6152C43.1191 31.6855 42.7412 31.7207 42.3662 31.7207C41.8916 31.7207 41.4463 31.6592 41.0303 31.5361C40.6143 31.4189 40.2422 31.249 39.9141 31.0264C39.5918 30.8037 39.3193 30.5371 39.0967 30.2266C38.874 29.9102 38.7158 29.5557 38.6221 29.1631C38.5693 28.999 38.5195 28.8936 38.4727 28.8467C38.4316 28.7939 38.3613 28.7676 38.2617 28.7676C38.0449 28.7676 37.8779 28.7148 37.7607 28.6094C37.6436 28.5039 37.585 28.3516 37.585 28.1523C37.585 28.0703 37.5908 28.0176 37.6025 27.9941L37.6201 27.8184C37.6494 27.6074 37.7051 27.4551 37.7871 27.3613C37.875 27.2676 38.0098 27.2207 38.1914 27.2207H38.3232C38.5693 27.2207 38.7422 27.1064 38.8418 26.8779C39.0234 26.4736 39.2549 26.1045 39.5361 25.7705C39.8174 25.4365 40.1338 25.1523 40.4854 24.918C40.8369 24.6777 41.2119 24.4932 41.6104 24.3643C42.0146 24.2295 42.4248 24.1621 42.8408 24.1621C43.2744 24.1621 43.6787 24.2266 44.0537 24.3555C44.4346 24.4785 44.7656 24.6514 45.0469 24.874C45.3281 25.0967 45.5479 25.3574 45.7061 25.6562C45.8701 25.9551 45.9521 26.2773 45.9521 26.623C45.9521 26.8633 45.9053 27.083 45.8115 27.2822C45.7178 27.4814 45.583 27.6572 45.4072 27.8096C45.2314 27.9561 45.0176 28.0762 44.7656 28.1699C44.5195 28.2637 44.2383 28.3252 43.9219 28.3545L40.8721 28.6621C40.7549 28.6621 40.6582 28.6914 40.582 28.75C40.5117 28.8086 40.4766 28.8877 40.4766 28.9873C40.4766 29.1396 40.5322 29.2861 40.6436 29.4268C40.7607 29.5674 40.9131 29.6934 41.1006 29.8047C41.2939 29.9102 41.5137 29.9951 41.7598 30.0596C42.0117 30.124 42.2695 30.1562 42.5332 30.1562C42.7852 30.1562 43.043 30.1328 43.3066 30.0859C43.5762 30.0332 43.8398 29.96 44.0977 29.8662C44.3613 29.7725 44.6162 29.6611 44.8623 29.5322C45.1084 29.3975 45.3398 29.2451 45.5566 29.0752ZM43.5967 26.8076C43.6846 26.79 43.7607 26.749 43.8252 26.6846C43.8896 26.6143 43.9219 26.5293 43.9219 26.4297C43.9219 26.3418 43.8896 26.2598 43.8252 26.1836C43.7607 26.1074 43.6729 26.04 43.5615 25.9814C43.4502 25.917 43.3213 25.8672 43.1748 25.832C43.0283 25.7969 42.873 25.7793 42.709 25.7793C42.4688 25.7793 42.2227 25.8145 41.9707 25.8848C41.7188 25.9551 41.4902 26.0488 41.2852 26.166C41.0801 26.2773 40.9131 26.4033 40.7842 26.5439C40.6553 26.6787 40.5908 26.8135 40.5908 26.9482C40.5908 27.083 40.6729 27.1504 40.8369 27.1504C40.9365 27.1504 41.0977 27.1387 41.3203 27.1152C41.543 27.0918 41.7891 27.0654 42.0586 27.0361C42.3281 27.001 42.6006 26.9629 42.876 26.9219C43.1514 26.8809 43.3916 26.8428 43.5967 26.8076Z" fill="black"/>
<path d="M37.0981 87.43L32.5951 76.2218C32.3844 75.6972 32.3869 75.1119 32.6022 74.5946C32.8175 74.0773 33.228 73.6704 33.7432 73.4634C34.2584 73.2564 34.8363 73.2663 35.3496 73.4908C35.863 73.7154 36.2698 74.1362 36.4805 74.6608L40.4537 84.5504M40.1888 83.8911L39.1293 81.2539C38.9186 80.7293 38.9211 80.144 39.1364 79.6267C39.3517 79.1094 39.7621 78.7025 40.2774 78.4955C40.7926 78.2885 41.3704 78.2984 41.8838 78.5229C42.3971 78.7475 42.8039 79.1684 43.0147 79.6929L44.3391 82.9895M43.5445 81.0116C43.3337 80.487 43.3363 79.9017 43.5516 79.3843C43.7669 78.867 44.1773 78.4601 44.6925 78.2531C45.2077 78.0461 45.7856 78.056 46.2989 78.2806C46.8123 78.5051 47.2191 78.926 47.4298 79.4506L48.2245 81.4285M47.9596 80.7692C47.7488 80.2446 47.7514 79.6593 47.9667 79.142C48.182 78.6247 48.5924 78.2178 49.1077 78.0108C49.6229 77.8038 50.2007 77.8137 50.7141 78.0382C51.2274 78.2628 51.6342 78.6837 51.845 79.2082L54.2289 85.142C55.0719 87.2403 55.0617 89.5816 54.2005 91.6508C53.3393 93.72 51.6976 95.3476 49.6367 96.1756L47.0464 97.2163L47.3158 97.108C46.029 97.6253 44.6315 97.809 43.2488 97.6428C41.8662 97.4766 40.5417 96.9656 39.3943 96.1556L38.9815 95.862C38.3237 95.3928 35.8942 93.4453 31.6912 90.0188C31.2628 89.6695 30.9837 89.1664 30.9133 88.6163C30.8429 88.0663 30.9867 87.5129 31.3143 87.0737C31.663 86.6056 32.1576 86.271 32.7195 86.1229C33.2814 85.9749 33.8783 86.0219 34.4155 86.2565L37.0981 87.43" fill="#ECECEC"/>
<path d="M40.4537 84.5504L36.4805 74.6608C36.2698 74.1362 35.863 73.7154 35.3496 73.4908C34.8363 73.2663 34.2584 73.2564 33.7432 73.4634C33.228 73.6704 32.8175 74.0773 32.6022 74.5946C32.3869 75.1119 32.3844 75.6972 32.5951 76.2218L37.0981 87.43L34.4155 86.2565C33.8783 86.0219 33.2814 85.9749 32.7195 86.1229C32.1576 86.271 31.663 86.6056 31.3143 87.0737C30.9867 87.5129 30.8429 88.0663 30.9133 88.6163C30.9837 89.1664 31.2628 89.6695 31.6912 90.0188C35.8942 93.4453 38.3237 95.3928 38.9815 95.862L39.3943 96.1556C40.5417 96.9656 41.8662 97.4766 43.2488 97.6428C44.6315 97.809 46.029 97.6253 47.3158 97.108L47.0464 97.2163L49.6367 96.1756C51.6976 95.3476 53.3393 93.72 54.2005 91.6508C55.0617 89.5816 55.0719 87.2403 54.2289 85.142L51.845 79.2082C51.6342 78.6837 51.2274 78.2628 50.7141 78.0382C50.2007 77.8137 49.6229 77.8038 49.1077 78.0108C48.5924 78.2178 48.182 78.6247 47.9667 79.142C47.7514 79.6593 47.7488 80.2446 47.9596 80.7692M40.1888 83.8911L39.1293 81.2539C38.9186 80.7293 38.9211 80.144 39.1364 79.6267C39.3517 79.1094 39.7621 78.7025 40.2774 78.4955C40.7926 78.2885 41.3704 78.2984 41.8838 78.5229C42.3971 78.7475 42.8039 79.1684 43.0147 79.6929L44.3391 82.9895M43.5445 81.0116C43.3337 80.487 43.3363 79.9017 43.5516 79.3843C43.7669 78.867 44.1773 78.4601 44.6925 78.2531C45.2077 78.0461 45.7856 78.056 46.2989 78.2806C46.8123 78.5051 47.2191 78.926 47.4298 79.4506L48.2245 81.4285" stroke="black" stroke-width="2.6" stroke-linecap="round" stroke-linejoin="round"/>
</svg>
